# xmcd
# 
# Track frame offsets:
#     150
#     14672
#     32172
# 
# Disc length: 640
# 
# Revision: 0
# Processed by: cddbd v1.5.2PL0 Copyright (c) Steve Scherf et al.
# Submitted via: fre:ac v1.0.17
# 
DISCID=1f027e03
DTITLE=Fountains of Wayne - Sink to the Bottom
DYEAR=1997
DGENRE=Rock
TTITLE0=Sink to the Bottom
TTITLE1=Can't Get it Out of my Head (Non-LP Bonus Track)
TTITLE2=Kid Gloves (Non-LP Bonus Track)
EXTD=
EXTT0=
EXTT1=
EXTT2=
PLAYORDER=
